# xmcd
# 
# Track frame offsets:
#     150
#     20042
#     34302
#     48257
#     66275
#     80805
#     100740
#     116617
#     138347
#     150472
#     168492
#     183825
#     204310
#     222892
#     242687
#     257895
# 
# Disc length: 3719
# 
# Revision: 0
# Processed by: cddbd v1.5.2PL0 Copyright (c) Steve Scherf et al.
# Submitted via: fre:ac v1.0.17
# 
DISCID=de0e8510
DTITLE=Aretha Franklin - The Delta Meets Detroit: Aretha's Blues
DYEAR=1998
DGENRE=Soul
TTITLE0=Today I Sing The Blues
TTITLE1=Ramblin'
TTITLE2=Pitiful
TTITLE3=I Never Loved A Man (The Way I Love You) [LIVE]
TTITLE4=Night Life
TTITLE5=I Wonder
TTITLE6=Takin' Another Man's Place
TTITLE7=Night Time Is The Right Time
TTITLE8=River's Invitation
TTITLE9=Good To Me As I Am To You
TTITLE10=It Ain't Fair
TTITLE11=Going Down Slow
TTITLE12=Drown In My Own Tears
TTITLE13=You Are My Sunshine
TTITLE14=Dr. Feelgood (Love Is A Serious Business)
TTITLE15=The Thrill Is Gone (From Yesterday's Kiss)
EXTD=
EXTT0=
EXTT1=
EXTT2=
EXTT3=
EXTT4=
EXTT5=
EXTT6=
EXTT7=
EXTT8=
EXTT9=
EXTT10=
EXTT11=
EXTT12=
EXTT13=
EXTT14=
EXTT15=
PLAYORDER=
